<mxfile host="Electron" agent="Mozilla/5.0 (Macintosh; Intel Mac OS X 10_15_7) AppleWebKit/537.36 (KHTML, like Gecko) draw.io/24.7.17 Chrome/128.0.6613.36 Electron/32.0.1 Safari/537.36" version="24.7.17">
  <diagram name="Page-1" id="_8i-WHcA0YG6ZmyiX9XZ">
    <mxGraphModel dx="2954" dy="1243" grid="1" gridSize="10" guides="1" tooltips="1" connect="1" arrows="1" fold="1" page="1" pageScale="1" pageWidth="827" pageHeight="1169" background="#ffffff" math="0" shadow="0">
      <root>
        <mxCell id="0" />
        <mxCell id="1" parent="0" />
        <mxCell id="mBtDJv3Pw37N-u9W3pF0-91" value="" style="rounded=1;whiteSpace=wrap;html=1;fillColor=#f0f6ff;strokeColor=#f0f6ff;" parent="1" vertex="1">
          <mxGeometry width="810" height="280" as="geometry" />
        </mxCell>
        <mxCell id="lr0GtnEVgXK8TkdrsODY-14" value="" style="strokeWidth=1;html=1;shape=mxgraph.flowchart.terminator;whiteSpace=wrap;strokeColor=#666666;" parent="1" vertex="1">
          <mxGeometry x="326" y="30" width="90" height="50" as="geometry" />
        </mxCell>
        <mxCell id="mBtDJv3Pw37N-u9W3pF0-92" value="" style="rounded=1;whiteSpace=wrap;html=1;fillColor=#def2dd;strokeColor=#def2dd;" parent="1" vertex="1">
          <mxGeometry x="1.5" y="320" width="808.5" height="610" as="geometry" />
        </mxCell>
        <mxCell id="lr0GtnEVgXK8TkdrsODY-10" value="" style="strokeWidth=1;html=1;shape=mxgraph.flowchart.terminator;whiteSpace=wrap;strokeColor=#666666;" parent="1" vertex="1">
          <mxGeometry x="703" y="815" width="90" height="50" as="geometry" />
        </mxCell>
        <mxCell id="lr0GtnEVgXK8TkdrsODY-8" value="" style="strokeWidth=1;html=1;shape=mxgraph.flowchart.terminator;whiteSpace=wrap;strokeColor=#666666;" parent="1" vertex="1">
          <mxGeometry x="205" y="675" width="90" height="50" as="geometry" />
        </mxCell>
        <mxCell id="mBtDJv3Pw37N-u9W3pF0-93" value="" style="rounded=1;whiteSpace=wrap;html=1;fillColor=#fff0c7;strokeColor=#fff0c7;" parent="1" vertex="1">
          <mxGeometry y="960" width="810" height="280" as="geometry" />
        </mxCell>
        <mxCell id="mBtDJv3Pw37N-u9W3pF0-21" value="" style="rounded=1;whiteSpace=wrap;html=1;strokeColor=#666666;" parent="1" vertex="1">
          <mxGeometry x="369" y="1007.5" width="130" height="70" as="geometry" />
        </mxCell>
        <mxCell id="mBtDJv3Pw37N-u9W3pF0-33" value="Expiration&amp;nbsp;&lt;div&gt;within&lt;div&gt;&amp;nbsp;allowed&amp;nbsp;&lt;/div&gt;&lt;div&gt;range?&lt;/div&gt;&lt;/div&gt;" style="rhombus;whiteSpace=wrap;html=1;strokeColor=#666666;" parent="1" vertex="1">
          <mxGeometry x="190" y="360" width="120" height="120" as="geometry" />
        </mxCell>
        <mxCell id="mBtDJv3Pw37N-u9W3pF0-64" value="" style="edgeStyle=orthogonalEdgeStyle;rounded=1;orthogonalLoop=1;jettySize=auto;html=1;curved=0;strokeColor=#666666;" parent="1" source="mBtDJv3Pw37N-u9W3pF0-2" target="mBtDJv3Pw37N-u9W3pF0-36" edge="1">
          <mxGeometry relative="1" as="geometry" />
        </mxCell>
        <mxCell id="mBtDJv3Pw37N-u9W3pF0-2" value="" style="ellipse;whiteSpace=wrap;html=1;strokeColor=#666666;" parent="1" vertex="1">
          <mxGeometry x="17" y="180" width="70" height="40" as="geometry" />
        </mxCell>
        <mxCell id="mBtDJv3Pw37N-u9W3pF0-15" value="Create connected ServiceAccount, ClusterRole, and ClusterRoleBinding" style="text;html=1;align=center;verticalAlign=middle;whiteSpace=wrap;rounded=0;" parent="1" vertex="1">
          <mxGeometry x="385" y="1007.5" width="100" height="70" as="geometry" />
        </mxCell>
        <mxCell id="mBtDJv3Pw37N-u9W3pF0-61" value="" style="edgeStyle=orthogonalEdgeStyle;rounded=1;orthogonalLoop=1;jettySize=auto;html=1;curved=0;strokeColor=#666666;" parent="1" source="mBtDJv3Pw37N-u9W3pF0-18" edge="1">
          <mxGeometry relative="1" as="geometry">
            <mxPoint x="540" y="1187.5" as="targetPoint" />
          </mxGeometry>
        </mxCell>
        <mxCell id="mBtDJv3Pw37N-u9W3pF0-18" value="" style="rounded=1;whiteSpace=wrap;html=1;strokeColor=#666666;" parent="1" vertex="1">
          <mxGeometry x="370" y="1152.5" width="130" height="70" as="geometry" />
        </mxCell>
        <mxCell id="mBtDJv3Pw37N-u9W3pF0-60" value="" style="edgeStyle=orthogonalEdgeStyle;rounded=1;orthogonalLoop=1;jettySize=auto;html=1;curved=0;strokeColor=#666666;" parent="1" source="mBtDJv3Pw37N-u9W3pF0-19" target="mBtDJv3Pw37N-u9W3pF0-18" edge="1">
          <mxGeometry relative="1" as="geometry" />
        </mxCell>
        <mxCell id="mBtDJv3Pw37N-u9W3pF0-19" value="" style="rounded=1;whiteSpace=wrap;html=1;strokeColor=#666666;" parent="1" vertex="1">
          <mxGeometry x="205" y="1152.5" width="130" height="70" as="geometry" />
        </mxCell>
        <mxCell id="mBtDJv3Pw37N-u9W3pF0-57" style="edgeStyle=orthogonalEdgeStyle;rounded=1;orthogonalLoop=1;jettySize=auto;html=1;entryX=0.5;entryY=0;entryDx=0;entryDy=0;exitX=0.5;exitY=1;exitDx=0;exitDy=0;curved=0;strokeColor=#666666;" parent="1" source="mBtDJv3Pw37N-u9W3pF0-20" target="mBtDJv3Pw37N-u9W3pF0-19" edge="1">
          <mxGeometry relative="1" as="geometry" />
        </mxCell>
        <mxCell id="mBtDJv3Pw37N-u9W3pF0-20" value="" style="rounded=1;whiteSpace=wrap;html=1;strokeColor=#666666;" parent="1" vertex="1">
          <mxGeometry x="540" y="1007.5" width="130" height="70" as="geometry" />
        </mxCell>
        <mxCell id="mBtDJv3Pw37N-u9W3pF0-59" value="" style="edgeStyle=orthogonalEdgeStyle;rounded=1;orthogonalLoop=1;jettySize=auto;html=1;curved=0;strokeColor=#666666;" parent="1" source="mBtDJv3Pw37N-u9W3pF0-21" target="mBtDJv3Pw37N-u9W3pF0-20" edge="1">
          <mxGeometry relative="1" as="geometry" />
        </mxCell>
        <mxCell id="mBtDJv3Pw37N-u9W3pF0-58" value="" style="edgeStyle=orthogonalEdgeStyle;rounded=1;orthogonalLoop=1;jettySize=auto;html=1;curved=0;strokeColor=#666666;" parent="1" source="mBtDJv3Pw37N-u9W3pF0-22" target="mBtDJv3Pw37N-u9W3pF0-21" edge="1">
          <mxGeometry relative="1" as="geometry" />
        </mxCell>
        <mxCell id="mBtDJv3Pw37N-u9W3pF0-22" value="" style="rounded=1;whiteSpace=wrap;html=1;strokeColor=#666666;" parent="1" vertex="1">
          <mxGeometry x="200" y="1007.5" width="130" height="70" as="geometry" />
        </mxCell>
        <mxCell id="mBtDJv3Pw37N-u9W3pF0-41" style="edgeStyle=orthogonalEdgeStyle;rounded=1;orthogonalLoop=1;jettySize=auto;html=1;entryX=0;entryY=0.5;entryDx=0;entryDy=0;curved=0;strokeColor=#666666;" parent="1" source="mBtDJv3Pw37N-u9W3pF0-24" target="mBtDJv3Pw37N-u9W3pF0-33" edge="1">
          <mxGeometry relative="1" as="geometry" />
        </mxCell>
        <mxCell id="mBtDJv3Pw37N-u9W3pF0-24" value="" style="rounded=1;whiteSpace=wrap;html=1;strokeColor=#666666;" parent="1" vertex="1">
          <mxGeometry x="17" y="385" width="130" height="70" as="geometry" />
        </mxCell>
        <mxCell id="mBtDJv3Pw37N-u9W3pF0-63" value="" style="edgeStyle=orthogonalEdgeStyle;rounded=1;orthogonalLoop=1;jettySize=auto;html=1;curved=0;strokeColor=#666666;entryX=0.5;entryY=0;entryDx=0;entryDy=0;entryPerimeter=0;" parent="1" source="mBtDJv3Pw37N-u9W3pF0-28" target="lr0GtnEVgXK8TkdrsODY-5" edge="1">
          <mxGeometry relative="1" as="geometry">
            <mxPoint x="80" y="1152.5" as="targetPoint" />
          </mxGeometry>
        </mxCell>
        <mxCell id="mBtDJv3Pw37N-u9W3pF0-67" value="" style="edgeStyle=orthogonalEdgeStyle;rounded=1;orthogonalLoop=1;jettySize=auto;html=1;curved=0;strokeColor=#666666;" parent="1" source="mBtDJv3Pw37N-u9W3pF0-28" target="mBtDJv3Pw37N-u9W3pF0-22" edge="1">
          <mxGeometry relative="1" as="geometry" />
        </mxCell>
        <mxCell id="mBtDJv3Pw37N-u9W3pF0-28" value="" style="rhombus;whiteSpace=wrap;html=1;strokeColor=#666666;" parent="1" vertex="1">
          <mxGeometry x="20" y="982.5" width="120" height="120" as="geometry" />
        </mxCell>
        <mxCell id="mBtDJv3Pw37N-u9W3pF0-49" style="edgeStyle=orthogonalEdgeStyle;rounded=1;orthogonalLoop=1;jettySize=auto;html=1;entryX=0.989;entryY=0.5;entryDx=0;entryDy=0;curved=0;strokeColor=#666666;entryPerimeter=0;" parent="1" source="mBtDJv3Pw37N-u9W3pF0-29" target="lr0GtnEVgXK8TkdrsODY-12" edge="1">
          <mxGeometry relative="1" as="geometry">
            <mxPoint x="320" y="840" as="targetPoint" />
          </mxGeometry>
        </mxCell>
        <mxCell id="mBtDJv3Pw37N-u9W3pF0-54" value="" style="edgeStyle=orthogonalEdgeStyle;rounded=1;orthogonalLoop=1;jettySize=auto;html=1;curved=0;strokeColor=#666666;" parent="1" source="mBtDJv3Pw37N-u9W3pF0-29" target="mBtDJv3Pw37N-u9W3pF0-31" edge="1">
          <mxGeometry relative="1" as="geometry" />
        </mxCell>
        <mxCell id="mBtDJv3Pw37N-u9W3pF0-29" value="" style="rhombus;whiteSpace=wrap;html=1;strokeColor=#666666;" parent="1" vertex="1">
          <mxGeometry x="370" y="780" width="120" height="120" as="geometry" />
        </mxCell>
        <mxCell id="mBtDJv3Pw37N-u9W3pF0-46" style="edgeStyle=orthogonalEdgeStyle;rounded=1;orthogonalLoop=1;jettySize=auto;html=1;entryX=1;entryY=0.5;entryDx=0;entryDy=0;curved=0;strokeColor=#666666;entryPerimeter=0;" parent="1" source="mBtDJv3Pw37N-u9W3pF0-30" target="lr0GtnEVgXK8TkdrsODY-8" edge="1">
          <mxGeometry relative="1" as="geometry">
            <mxPoint x="285" y="700" as="targetPoint" />
          </mxGeometry>
        </mxCell>
        <mxCell id="mBtDJv3Pw37N-u9W3pF0-48" style="edgeStyle=orthogonalEdgeStyle;rounded=1;orthogonalLoop=1;jettySize=auto;html=1;entryX=0.5;entryY=0;entryDx=0;entryDy=0;curved=0;strokeColor=#666666;" parent="1" source="mBtDJv3Pw37N-u9W3pF0-30" target="mBtDJv3Pw37N-u9W3pF0-29" edge="1">
          <mxGeometry relative="1" as="geometry" />
        </mxCell>
        <mxCell id="mBtDJv3Pw37N-u9W3pF0-30" value="" style="rhombus;whiteSpace=wrap;html=1;strokeColor=#666666;" parent="1" vertex="1">
          <mxGeometry x="370" y="640" width="120" height="120" as="geometry" />
        </mxCell>
        <mxCell id="mBtDJv3Pw37N-u9W3pF0-55" value="" style="edgeStyle=orthogonalEdgeStyle;rounded=1;orthogonalLoop=1;jettySize=auto;html=1;curved=0;strokeColor=#666666;entryX=0;entryY=0.5;entryDx=0;entryDy=0;entryPerimeter=0;" parent="1" source="mBtDJv3Pw37N-u9W3pF0-31" target="lr0GtnEVgXK8TkdrsODY-10" edge="1">
          <mxGeometry relative="1" as="geometry">
            <mxPoint x="715" y="840" as="targetPoint" />
          </mxGeometry>
        </mxCell>
        <mxCell id="mBtDJv3Pw37N-u9W3pF0-127" style="edgeStyle=orthogonalEdgeStyle;rounded=1;orthogonalLoop=1;jettySize=auto;html=1;entryX=0.5;entryY=0;entryDx=0;entryDy=0;curved=0;strokeColor=#666666;exitX=0.5;exitY=1;exitDx=0;exitDy=0;" parent="1" source="mBtDJv3Pw37N-u9W3pF0-31" target="mBtDJv3Pw37N-u9W3pF0-28" edge="1">
          <mxGeometry relative="1" as="geometry">
            <Array as="points">
              <mxPoint x="600" y="910" />
              <mxPoint x="80" y="910" />
            </Array>
          </mxGeometry>
        </mxCell>
        <mxCell id="mBtDJv3Pw37N-u9W3pF0-31" value="" style="rhombus;whiteSpace=wrap;html=1;strokeColor=#666666;" parent="1" vertex="1">
          <mxGeometry x="540" y="780" width="120" height="120" as="geometry" />
        </mxCell>
        <mxCell id="mBtDJv3Pw37N-u9W3pF0-47" style="edgeStyle=orthogonalEdgeStyle;rounded=1;orthogonalLoop=1;jettySize=auto;html=1;curved=0;strokeColor=#666666;entryX=0.5;entryY=0;entryDx=0;entryDy=0;" parent="1" source="mBtDJv3Pw37N-u9W3pF0-32" target="oLnCeBjXMYcXPC0s3TDj-1" edge="1">
          <mxGeometry relative="1" as="geometry">
            <mxPoint x="430" y="630" as="targetPoint" />
          </mxGeometry>
        </mxCell>
        <mxCell id="mBtDJv3Pw37N-u9W3pF0-53" style="edgeStyle=orthogonalEdgeStyle;rounded=1;orthogonalLoop=1;jettySize=auto;html=1;entryX=0.5;entryY=0;entryDx=0;entryDy=0;curved=0;strokeColor=#666666;" parent="1" source="mBtDJv3Pw37N-u9W3pF0-32" target="mBtDJv3Pw37N-u9W3pF0-31" edge="1">
          <mxGeometry relative="1" as="geometry" />
        </mxCell>
        <mxCell id="mBtDJv3Pw37N-u9W3pF0-32" value="Instance&amp;nbsp;&lt;div&gt;successfully&amp;nbsp;&lt;/div&gt;&lt;div&gt;created?&lt;/div&gt;" style="rhombus;whiteSpace=wrap;html=1;strokeColor=#666666;" parent="1" vertex="1">
          <mxGeometry x="370" y="360" width="120" height="120" as="geometry" />
        </mxCell>
        <mxCell id="mBtDJv3Pw37N-u9W3pF0-42" style="edgeStyle=orthogonalEdgeStyle;rounded=1;orthogonalLoop=1;jettySize=auto;html=1;entryX=0;entryY=0.5;entryDx=0;entryDy=0;curved=0;strokeColor=#666666;" parent="1" source="mBtDJv3Pw37N-u9W3pF0-33" target="mBtDJv3Pw37N-u9W3pF0-32" edge="1">
          <mxGeometry relative="1" as="geometry" />
        </mxCell>
        <mxCell id="mBtDJv3Pw37N-u9W3pF0-45" style="edgeStyle=orthogonalEdgeStyle;rounded=1;orthogonalLoop=1;jettySize=auto;html=1;curved=0;strokeColor=#666666;entryX=0.5;entryY=0;entryDx=0;entryDy=0;entryPerimeter=0;" parent="1" source="mBtDJv3Pw37N-u9W3pF0-33" target="lr0GtnEVgXK8TkdrsODY-8" edge="1">
          <mxGeometry relative="1" as="geometry">
            <mxPoint x="250" y="560" as="targetPoint" />
          </mxGeometry>
        </mxCell>
        <mxCell id="mBtDJv3Pw37N-u9W3pF0-39" style="edgeStyle=orthogonalEdgeStyle;rounded=1;orthogonalLoop=1;jettySize=auto;html=1;entryX=1;entryY=0.5;entryDx=0;entryDy=0;exitX=0.5;exitY=0;exitDx=0;exitDy=0;curved=0;strokeColor=#666666;entryPerimeter=0;" parent="1" source="mBtDJv3Pw37N-u9W3pF0-34" target="lr0GtnEVgXK8TkdrsODY-14" edge="1">
          <mxGeometry relative="1" as="geometry">
            <mxPoint x="406" y="60" as="targetPoint" />
          </mxGeometry>
        </mxCell>
        <mxCell id="mBtDJv3Pw37N-u9W3pF0-126" style="edgeStyle=orthogonalEdgeStyle;rounded=1;orthogonalLoop=1;jettySize=auto;html=1;entryX=0.5;entryY=0;entryDx=0;entryDy=0;exitX=0.5;exitY=1;exitDx=0;exitDy=0;curved=0;strokeColor=#666666;" parent="1" source="mBtDJv3Pw37N-u9W3pF0-34" target="mBtDJv3Pw37N-u9W3pF0-24" edge="1">
          <mxGeometry relative="1" as="geometry">
            <Array as="points">
              <mxPoint x="546" y="310" />
              <mxPoint x="82" y="310" />
            </Array>
          </mxGeometry>
        </mxCell>
        <mxCell id="mBtDJv3Pw37N-u9W3pF0-34" value="" style="rhombus;whiteSpace=wrap;html=1;strokeColor=#666666;" parent="1" vertex="1">
          <mxGeometry x="486" y="140" width="120" height="120" as="geometry" />
        </mxCell>
        <mxCell id="mBtDJv3Pw37N-u9W3pF0-37" value="" style="edgeStyle=orthogonalEdgeStyle;rounded=1;orthogonalLoop=1;jettySize=auto;html=1;curved=0;strokeColor=#666666;" parent="1" source="mBtDJv3Pw37N-u9W3pF0-35" edge="1">
          <mxGeometry relative="1" as="geometry">
            <mxPoint x="371" y="80" as="targetPoint" />
          </mxGeometry>
        </mxCell>
        <mxCell id="mBtDJv3Pw37N-u9W3pF0-66" value="" style="edgeStyle=orthogonalEdgeStyle;rounded=1;orthogonalLoop=1;jettySize=auto;html=1;curved=0;strokeColor=#666666;" parent="1" source="mBtDJv3Pw37N-u9W3pF0-35" target="mBtDJv3Pw37N-u9W3pF0-34" edge="1">
          <mxGeometry relative="1" as="geometry" />
        </mxCell>
        <mxCell id="mBtDJv3Pw37N-u9W3pF0-35" value="Kyma instance&amp;nbsp;&lt;div&gt;exists?&lt;/div&gt;" style="rhombus;whiteSpace=wrap;html=1;strokeColor=#666666;" parent="1" vertex="1">
          <mxGeometry x="311" y="140" width="120" height="120" as="geometry" />
        </mxCell>
        <mxCell id="mBtDJv3Pw37N-u9W3pF0-38" style="edgeStyle=orthogonalEdgeStyle;rounded=1;orthogonalLoop=1;jettySize=auto;html=1;entryX=0;entryY=0.5;entryDx=0;entryDy=0;exitX=0.5;exitY=0;exitDx=0;exitDy=0;curved=0;strokeColor=#666666;entryPerimeter=0;" parent="1" source="mBtDJv3Pw37N-u9W3pF0-36" target="lr0GtnEVgXK8TkdrsODY-14" edge="1">
          <mxGeometry relative="1" as="geometry">
            <mxPoint x="336" y="60" as="targetPoint" />
          </mxGeometry>
        </mxCell>
        <mxCell id="mBtDJv3Pw37N-u9W3pF0-65" value="" style="edgeStyle=orthogonalEdgeStyle;rounded=1;orthogonalLoop=1;jettySize=auto;html=1;curved=0;strokeColor=#666666;" parent="1" source="mBtDJv3Pw37N-u9W3pF0-36" target="mBtDJv3Pw37N-u9W3pF0-35" edge="1">
          <mxGeometry relative="1" as="geometry" />
        </mxCell>
        <mxCell id="mBtDJv3Pw37N-u9W3pF0-36" value="" style="rhombus;whiteSpace=wrap;html=1;strokeColor=#666666;" parent="1" vertex="1">
          <mxGeometry x="127" y="140" width="120" height="120" as="geometry" />
        </mxCell>
        <mxCell id="mBtDJv3Pw37N-u9W3pF0-68" value="Start" style="text;html=1;align=center;verticalAlign=middle;whiteSpace=wrap;rounded=0;" parent="1" vertex="1">
          <mxGeometry x="22" y="185" width="60" height="30" as="geometry" />
        </mxCell>
        <mxCell id="mBtDJv3Pw37N-u9W3pF0-70" value="Feature flag enabled?" style="text;html=1;align=center;verticalAlign=middle;whiteSpace=wrap;rounded=0;" parent="1" vertex="1">
          <mxGeometry x="157" y="170" width="60" height="60" as="geometry" />
        </mxCell>
        <mxCell id="mBtDJv3Pw37N-u9W3pF0-72" value="Plan bindable?" style="text;html=1;align=center;verticalAlign=middle;whiteSpace=wrap;rounded=0;" parent="1" vertex="1">
          <mxGeometry x="516" y="170" width="61" height="60" as="geometry" />
        </mxCell>
        <mxCell id="mBtDJv3Pw37N-u9W3pF0-73" value="Unmarshal request binding and binding parameters" style="text;html=1;align=center;verticalAlign=middle;whiteSpace=wrap;rounded=0;" parent="1" vertex="1">
          <mxGeometry x="24.5" y="395" width="112.5" height="50" as="geometry" />
        </mxCell>
        <mxCell id="mBtDJv3Pw37N-u9W3pF0-76" value="Non-expired bindings limit exceeded?" style="text;html=1;align=center;verticalAlign=middle;whiteSpace=wrap;rounded=0;" parent="1" vertex="1">
          <mxGeometry x="570" y="800" width="60" height="70" as="geometry" />
        </mxCell>
        <mxCell id="mBtDJv3Pw37N-u9W3pF0-79" value="Existing binding expired?" style="text;html=1;align=center;verticalAlign=middle;whiteSpace=wrap;rounded=0;" parent="1" vertex="1">
          <mxGeometry x="400" y="804" width="60" height="60" as="geometry" />
        </mxCell>
        <mxCell id="mBtDJv3Pw37N-u9W3pF0-81" value="Existing binding with same parameters?" style="text;html=1;align=center;verticalAlign=middle;whiteSpace=wrap;rounded=0;" parent="1" vertex="1">
          <mxGeometry x="400" y="670" width="60" height="60" as="geometry" />
        </mxCell>
        <mxCell id="mBtDJv3Pw37N-u9W3pF0-83" value="Expired binding exists?" style="text;html=1;align=center;verticalAlign=middle;whiteSpace=wrap;rounded=0;" parent="1" vertex="1">
          <mxGeometry x="50" y="1007.5" width="60" height="65" as="geometry" />
        </mxCell>
        <mxCell id="mBtDJv3Pw37N-u9W3pF0-85" value="Create binding" style="text;html=1;align=center;verticalAlign=middle;whiteSpace=wrap;rounded=0;" parent="1" vertex="1">
          <mxGeometry x="210" y="1012.5" width="110" height="60" as="geometry" />
        </mxCell>
        <mxCell id="mBtDJv3Pw37N-u9W3pF0-86" value="Create TokenRequest" style="text;html=1;align=center;verticalAlign=middle;whiteSpace=wrap;rounded=0;" parent="1" vertex="1">
          <mxGeometry x="550" y="1012.5" width="110" height="60" as="geometry" />
        </mxCell>
        <mxCell id="mBtDJv3Pw37N-u9W3pF0-87" value="Build kubeconfig&amp;nbsp;&lt;div&gt;with&amp;nbsp; token&lt;/div&gt;" style="text;html=1;align=center;verticalAlign=middle;whiteSpace=wrap;rounded=0;" parent="1" vertex="1">
          <mxGeometry x="210" y="1157.5" width="120" height="60" as="geometry" />
        </mxCell>
        <mxCell id="mBtDJv3Pw37N-u9W3pF0-88" value="Update expirable binding with kubeconfig" style="text;html=1;align=center;verticalAlign=middle;whiteSpace=wrap;rounded=0;" parent="1" vertex="1">
          <mxGeometry x="380" y="1155" width="110" height="65" as="geometry" />
        </mxCell>
        <mxCell id="mBtDJv3Pw37N-u9W3pF0-94" value="No" style="text;html=1;align=center;verticalAlign=middle;whiteSpace=wrap;rounded=0;" parent="1" vertex="1">
          <mxGeometry x="520" y="880" width="60" height="30" as="geometry" />
        </mxCell>
        <mxCell id="mBtDJv3Pw37N-u9W3pF0-95" value="No" style="text;html=1;align=center;verticalAlign=middle;whiteSpace=wrap;rounded=0;" parent="1" vertex="1">
          <mxGeometry x="172" y="90" width="60" height="30" as="geometry" />
        </mxCell>
        <mxCell id="mBtDJv3Pw37N-u9W3pF0-96" value="No" style="text;html=1;align=center;verticalAlign=middle;whiteSpace=wrap;rounded=0;" parent="1" vertex="1">
          <mxGeometry x="357" y="90" width="60" height="30" as="geometry" />
        </mxCell>
        <mxCell id="mBtDJv3Pw37N-u9W3pF0-97" value="No" style="text;html=1;align=center;verticalAlign=middle;whiteSpace=wrap;rounded=0;" parent="1" vertex="1">
          <mxGeometry x="537" y="90" width="60" height="30" as="geometry" />
        </mxCell>
        <mxCell id="mBtDJv3Pw37N-u9W3pF0-98" value="No" style="text;html=1;align=center;verticalAlign=middle;whiteSpace=wrap;rounded=0;" parent="1" vertex="1">
          <mxGeometry x="234" y="570" width="60" height="30" as="geometry" />
        </mxCell>
        <mxCell id="mBtDJv3Pw37N-u9W3pF0-100" value="Yes" style="text;html=1;align=center;verticalAlign=middle;whiteSpace=wrap;rounded=0;" parent="1" vertex="1">
          <mxGeometry x="426" y="170" width="60" height="30" as="geometry" />
        </mxCell>
        <mxCell id="mBtDJv3Pw37N-u9W3pF0-101" value="Yes" style="text;html=1;align=center;verticalAlign=middle;whiteSpace=wrap;rounded=0;" parent="1" vertex="1">
          <mxGeometry x="242" y="170" width="60" height="30" as="geometry" />
        </mxCell>
        <mxCell id="mBtDJv3Pw37N-u9W3pF0-102" value="Yes" style="text;html=1;align=center;verticalAlign=middle;whiteSpace=wrap;rounded=0;" parent="1" vertex="1">
          <mxGeometry x="339" y="280" width="60" height="30" as="geometry" />
        </mxCell>
        <mxCell id="mBtDJv3Pw37N-u9W3pF0-103" value="Yes" style="text;html=1;align=center;verticalAlign=middle;whiteSpace=wrap;rounded=0;" parent="1" vertex="1">
          <mxGeometry x="305" y="395" width="60" height="30" as="geometry" />
        </mxCell>
        <mxCell id="mBtDJv3Pw37N-u9W3pF0-104" value="No" style="text;html=1;align=center;verticalAlign=middle;whiteSpace=wrap;rounded=0;" parent="1" vertex="1">
          <mxGeometry x="520" y="395" width="60" height="30" as="geometry" />
        </mxCell>
        <mxCell id="mBtDJv3Pw37N-u9W3pF0-105" value="Yes" style="text;html=1;align=center;verticalAlign=middle;whiteSpace=wrap;rounded=0;" parent="1" vertex="1">
          <mxGeometry x="419" y="570" width="60" height="30" as="geometry" />
        </mxCell>
        <mxCell id="mBtDJv3Pw37N-u9W3pF0-106" value="No" style="text;html=1;align=center;verticalAlign=middle;whiteSpace=wrap;rounded=0;" parent="1" vertex="1">
          <mxGeometry x="300" y="670" width="60" height="30" as="geometry" />
        </mxCell>
        <mxCell id="mBtDJv3Pw37N-u9W3pF0-107" value="Yes" style="text;html=1;align=center;verticalAlign=middle;whiteSpace=wrap;rounded=0;" parent="1" vertex="1">
          <mxGeometry x="420" y="750" width="60" height="30" as="geometry" />
        </mxCell>
        <mxCell id="mBtDJv3Pw37N-u9W3pF0-108" value="No" style="text;html=1;align=center;verticalAlign=middle;whiteSpace=wrap;rounded=0;" parent="1" vertex="1">
          <mxGeometry x="305" y="810" width="60" height="30" as="geometry" />
        </mxCell>
        <mxCell id="mBtDJv3Pw37N-u9W3pF0-109" value="Yes" style="text;html=1;align=center;verticalAlign=middle;whiteSpace=wrap;rounded=0;" parent="1" vertex="1">
          <mxGeometry x="653" y="810" width="60" height="30" as="geometry" />
        </mxCell>
        <mxCell id="mBtDJv3Pw37N-u9W3pF0-110" value="Yes" style="text;html=1;align=center;verticalAlign=middle;whiteSpace=wrap;rounded=0;" parent="1" vertex="1">
          <mxGeometry x="480" y="810" width="60" height="30" as="geometry" />
        </mxCell>
        <mxCell id="mBtDJv3Pw37N-u9W3pF0-112" value="Yes" style="text;html=1;align=center;verticalAlign=middle;whiteSpace=wrap;rounded=0;" parent="1" vertex="1">
          <mxGeometry x="70" y="1110" width="60" height="30" as="geometry" />
        </mxCell>
        <mxCell id="mBtDJv3Pw37N-u9W3pF0-113" value="No" style="text;html=1;align=center;verticalAlign=middle;whiteSpace=wrap;rounded=0;" parent="1" vertex="1">
          <mxGeometry x="140" y="1012.5" width="60" height="30" as="geometry" />
        </mxCell>
        <mxCell id="mBtDJv3Pw37N-u9W3pF0-117" value="&lt;font size=&quot;1&quot; style=&quot;&quot;&gt;&lt;b style=&quot;font-size: 13px;&quot;&gt;Configuration Check&lt;/b&gt;&lt;/font&gt;" style="text;html=1;align=center;verticalAlign=middle;whiteSpace=wrap;rounded=0;" parent="1" vertex="1">
          <mxGeometry x="312" width="165" height="28" as="geometry" />
        </mxCell>
        <mxCell id="mBtDJv3Pw37N-u9W3pF0-120" value="&lt;font size=&quot;1&quot; style=&quot;&quot;&gt;&lt;b style=&quot;font-size: 13px;&quot;&gt;Request Validation&lt;/b&gt;&lt;/font&gt;" style="text;html=1;align=center;verticalAlign=middle;whiteSpace=wrap;rounded=0;" parent="1" vertex="1">
          <mxGeometry x="327" y="320" width="165" height="28" as="geometry" />
        </mxCell>
        <mxCell id="mBtDJv3Pw37N-u9W3pF0-121" value="&lt;font size=&quot;1&quot; style=&quot;&quot;&gt;&lt;b style=&quot;font-size: 13px;&quot;&gt;Binding Creation&lt;/b&gt;&lt;/font&gt;" style="text;html=1;align=center;verticalAlign=middle;whiteSpace=wrap;rounded=0;" parent="1" vertex="1">
          <mxGeometry x="341" y="970" width="165" height="28" as="geometry" />
        </mxCell>
        <mxCell id="lr0GtnEVgXK8TkdrsODY-1" value="" style="strokeWidth=1;html=1;shape=mxgraph.flowchart.terminator;whiteSpace=wrap;strokeColor=#666666;" parent="1" vertex="1">
          <mxGeometry x="540" y="1163.75" width="90" height="50" as="geometry" />
        </mxCell>
        <mxCell id="lr0GtnEVgXK8TkdrsODY-2" value="Created binding returned" style="text;html=1;align=center;verticalAlign=middle;whiteSpace=wrap;rounded=0;" parent="1" vertex="1">
          <mxGeometry x="570" y="1170" width="30" height="40" as="geometry" />
        </mxCell>
        <mxCell id="lr0GtnEVgXK8TkdrsODY-5" value="" style="strokeWidth=1;html=1;shape=mxgraph.flowchart.terminator;whiteSpace=wrap;strokeColor=#666666;" parent="1" vertex="1">
          <mxGeometry x="35" y="1163.75" width="90" height="50" as="geometry" />
        </mxCell>
        <mxCell id="lr0GtnEVgXK8TkdrsODY-6" value="Error returned" style="text;html=1;align=center;verticalAlign=middle;whiteSpace=wrap;rounded=0;" parent="1" vertex="1">
          <mxGeometry x="50" y="1168.75" width="60" height="41.25" as="geometry" />
        </mxCell>
        <mxCell id="lr0GtnEVgXK8TkdrsODY-7" value="Error returned" style="text;html=1;align=center;verticalAlign=middle;whiteSpace=wrap;rounded=0;movable=1;resizable=1;rotatable=1;deletable=1;editable=1;locked=0;connectable=1;" parent="1" vertex="1">
          <mxGeometry x="341" y="34.379999999999995" width="60" height="41.25" as="geometry" />
        </mxCell>
        <mxCell id="lr0GtnEVgXK8TkdrsODY-9" value="Error returned" style="text;html=1;align=center;verticalAlign=middle;whiteSpace=wrap;rounded=0;movable=1;resizable=1;rotatable=1;deletable=1;editable=1;locked=0;connectable=1;" parent="1" vertex="1">
          <mxGeometry x="718" y="820" width="60" height="41.25" as="geometry" />
        </mxCell>
        <mxCell id="lr0GtnEVgXK8TkdrsODY-11" value="Error returned" style="text;html=1;align=center;verticalAlign=middle;whiteSpace=wrap;rounded=0;movable=1;resizable=1;rotatable=1;deletable=1;editable=1;locked=0;connectable=1;" parent="1" vertex="1">
          <mxGeometry x="218" y="679.38" width="60" height="41.25" as="geometry" />
        </mxCell>
        <mxCell id="lr0GtnEVgXK8TkdrsODY-12" value="" style="strokeWidth=1;html=1;shape=mxgraph.flowchart.terminator;whiteSpace=wrap;strokeColor=#666666;" parent="1" vertex="1">
          <mxGeometry x="210" y="815" width="90" height="50" as="geometry" />
        </mxCell>
        <mxCell id="lr0GtnEVgXK8TkdrsODY-13" value="Existing binding returned" style="text;html=1;align=center;verticalAlign=middle;whiteSpace=wrap;rounded=0;movable=1;resizable=1;rotatable=1;deletable=1;editable=1;locked=0;connectable=1;" parent="1" vertex="1">
          <mxGeometry x="225" y="820" width="60" height="41.25" as="geometry" />
        </mxCell>
        <mxCell id="oLnCeBjXMYcXPC0s3TDj-2" style="edgeStyle=orthogonalEdgeStyle;shape=connector;curved=0;rounded=1;orthogonalLoop=1;jettySize=auto;html=1;exitX=0.5;exitY=1;exitDx=0;exitDy=0;entryX=0.5;entryY=0;entryDx=0;entryDy=0;strokeColor=#666666;align=center;verticalAlign=middle;fontFamily=Helvetica;fontSize=11;fontColor=default;labelBackgroundColor=default;endArrow=classic;" edge="1" parent="1" source="oLnCeBjXMYcXPC0s3TDj-1" target="mBtDJv3Pw37N-u9W3pF0-30">
          <mxGeometry relative="1" as="geometry" />
        </mxCell>
        <mxCell id="oLnCeBjXMYcXPC0s3TDj-1" value="Binding exists?" style="rhombus;whiteSpace=wrap;html=1;strokeColor=#666666;" vertex="1" parent="1">
          <mxGeometry x="370" y="500" width="120" height="120" as="geometry" />
        </mxCell>
        <mxCell id="oLnCeBjXMYcXPC0s3TDj-3" value="No" style="text;html=1;align=center;verticalAlign=middle;whiteSpace=wrap;rounded=0;" vertex="1" parent="1">
          <mxGeometry x="294" y="530" width="60" height="30" as="geometry" />
        </mxCell>
        <mxCell id="oLnCeBjXMYcXPC0s3TDj-4" value="Yes" style="text;html=1;align=center;verticalAlign=middle;whiteSpace=wrap;rounded=0;" vertex="1" parent="1">
          <mxGeometry x="380" y="480" width="60" height="30" as="geometry" />
        </mxCell>
        <mxCell id="oLnCeBjXMYcXPC0s3TDj-5" value="Yes" style="text;html=1;align=center;verticalAlign=middle;whiteSpace=wrap;rounded=0;" vertex="1" parent="1">
          <mxGeometry x="380" y="620" width="60" height="30" as="geometry" />
        </mxCell>
        <mxCell id="oLnCeBjXMYcXPC0s3TDj-6" style="edgeStyle=orthogonalEdgeStyle;shape=connector;curved=0;rounded=1;orthogonalLoop=1;jettySize=auto;html=1;exitX=0;exitY=0.5;exitDx=0;exitDy=0;entryX=0.5;entryY=0;entryDx=0;entryDy=0;entryPerimeter=0;strokeColor=#666666;align=center;verticalAlign=middle;fontFamily=Helvetica;fontSize=11;fontColor=default;labelBackgroundColor=default;endArrow=classic;" edge="1" parent="1" source="oLnCeBjXMYcXPC0s3TDj-1" target="lr0GtnEVgXK8TkdrsODY-8">
          <mxGeometry relative="1" as="geometry" />
        </mxCell>
      </root>
    </mxGraphModel>
  </diagram>
</mxfile>
